# xmcd
#
# Track frame offsets: 
#        150
#        5313
#        19992
#        35799
#        53577
#        73695
#        89519
#        103273
#        114311
#        128978
#        143592
#        163921
#        185784
#        215790
#        231283
#
# Disc length: 3240 seconds
#
# Revision: 0
# Processed by: cddbd v1.5.2PL0 Copyright (c) Steve Scherf et al.
# Submitted via: ExactAudioCopy v0.95b4
#
DISCID=de0ca60f
DTITLE=Вячеслав Ковалев - Концерт в музее Александра Блока
DYEAR=2004
DGENRE=Бард
TTITLE0=Вступительное слово
TTITLE1=Твоя мелодия
TTITLE2=Начну с нуля
TTITLE3=Песенка по случаю
TTITLE4=Кофе в небесах
TTITLE5=Королева
TTITLE6="Если только жив я буду..."
TTITLE7=Почему бы и нет?
TTITLE8=Дом
TTITLE9=Золотой час пик
TTITLE10=Лирическое отступление
TTITLE11=Семь куплетов про поэтов
TTITLE12=Мелодрама
TTITLE13=Про авторскую песню
TTITLE14=В любые времена
EXTD=
EXTT0=
EXTT1=
EXTT2=
EXTT3=
EXTT4=
EXTT5=
EXTT6=
EXTT7=
EXTT8=
EXTT9=
EXTT10=
EXTT11=
EXTT12=
EXTT13=
EXTT14=
PLAYORDER=
